HIERARCHY
ROOT Hips
{
  OFFSET 0 0 0
  CHANNELS 6 Xposition Yposition Zposition Zrotation Yrotation Xrotation
  JOINT LeftThigh
  {
    OFFSET 8.409438 0 -5.917753
    CHANNELS 3 Zrotation Yrotation Xrotation
    JOINT LeftLeg
    {
      OFFSET 0 0 -42.358652
      CHANNELS 3 Zrotation Yrotation Xrotation
      JOINT LeftFoot
      {
        OFFSET 0 0 -39.357303
        CHANNELS 3 Zrotation Yrotation Xrotation
      }
    }
  }
  JOINT RightThigh
  {
    OFFSET -8.409438 0 -5.917753
    CHANNELS 3 Zrotation Yrotation Xrotation
    JOINT RightLeg
    {
      OFFSET 0 0 -42.358652
      CHANNELS 3 Zrotation Yrotation Xrotation
      JOINT RightFoot
      {
        OFFSET 0 0 -39.357303
        CHANNELS 3 Zrotation Yrotation Xrotation
      }
    }
  }
  JOINT SpineLow
  {
    OFFSET 0 0 4.719101
    CHANNELS 3 Zrotation Yrotation Xrotation
    JOINT SpineMid
    {
      OFFSET 0 0 12.899191
      CHANNELS 3 Zrotation Yrotation Xrotation
      JOINT Chest
      {
        OFFSET 0 0 12.899191
        CHANNELS 3 Zrotation Yrotation Xrotation
        JOINT LeftShoulder
        {
          OFFSET 7.550562 1.41573 9.438202
          CHANNELS 3 Zrotation Yrotation Xrotation
          JOINT LeftArm
          {
            OFFSET 9.155056 0 4.247191
            CHANNELS 3 Zrotation Yrotation Xrotation
            JOINT LeftForearm
            {
              OFFSET 0 0 25.771955
              CHANNELS 3 Zrotation Yrotation Xrotation
              JOINT LeftHand
              {
                OFFSET 0 0 25.197169
                CHANNELS 3 Zrotation Yrotation Xrotation
              }
            }
          }
        }
        JOINT RightShoulder
        {
          OFFSET -7.550562 1.41573 9.438202
          CHANNELS 3 Zrotation Yrotation Xrotation
          JOINT RightArm
          {
            OFFSET -9.155056 0 4.247191
            CHANNELS 3 Zrotation Yrotation Xrotation
            JOINT RightForearm
            {
              OFFSET 0 0 -25.771955
              CHANNELS 3 Zrotation Yrotation Xrotation
              JOINT RightHand
              {
                OFFSET 0 0 -25.197169
                CHANNELS 3 Zrotation Yrotation Xrotation
              }
            }
          }
        }
        JOINT Neck
        {
          OFFSET 0 0 15.101124
          CHANNELS 3 Zrotation Yrotation Xrotation
          JOINT Head
          {
            OFFSET 0 0 11.325843
            CHANNELS 3 Zrotation Yrotation Xrotation
            End Site
            {
              OFFSET 0 0 14.157303
            }
          }
        }
      }
    }
  }
}
MOTION
Frames: 7
Frame Time: 0.0
0.0  93.25843  0.0  -4.914448  23.191049  -85.910911  11.899776  -20.572659  21.089287  6.418215  -1.087153  15.442617  -6.035095  -1.47609  -3.318798  -15.228289  -22.431863  -32.814285  -0.422187  21.234747  29.248117  0.773732  2.391761  2.70624  -1.14471  -1.182306  -0.441299  -3.109554  -3.251662  -1.150802  -3.109554  -3.251662  -1.150802  -17.156883  18.816611  1.235734  141.383999  60.218059  -158.039395  4.095372  -38.462135  75.609464  72.454253  -33.760394  27.883825  5.227137  -9.463197  12.640684  71.149015  67.044814  22.288212  -35.071389  21.835064  -66.757474  91.72181  -20.728889  -11.394891  -7.244242  1.014824  -1.479866  -5.43062  0.778796  -1.098023  
0.0  93.25843  0.0  -4.998728  21.912778  -86.430808  12.937871  -21.018678  19.951234  5.74813  -1.583861  19.361379  -6.023727  -1.489642  -3.123216  -14.14461  -22.307739  -31.225575  -0.836584  21.22642  28.149188  0.923272  2.351185  2.702369  -1.073785  -1.16995  -0.408631  -2.917328  -3.215267  -1.065501  -2.917328  -3.215267  -1.065501  -16.997479  18.43685  0.900535  140.678529  62.615753  -158.844058  5.887567  -41.633539  75.127847  75.032364  -33.753311  25.370478  5.59298  -9.390719  12.439287  73.929785  67.887403  24.739274  -34.756086  24.034529  -66.164483  94.494026  -19.634891  -13.60976  -6.781318  1.147492  -1.060175  -5.083846  0.872513  -0.782485  
0.0  93.25843  0.0  -4.977801  20.647789  -86.844458  13.465685  -20.976849  18.492179  4.830677  -1.923019  23.609395  -5.691297  -1.469009  -2.796432  -13.21896  -22.165945  -29.603671  -0.989091  21.049485  26.965601  0.995735  2.273797  2.733365  -1.002506  -1.129166  -0.395149  -2.723547  -3.102148  -1.033755  -2.723547  -3.102148  -1.033755  -16.866568  17.896493  0.612382  139.325378  65.024294  -160.206668  7.375249  -44.742002  74.468474  77.437859  -33.167517  22.71215  5.925833  -9.37655  12.230729  76.906849  68.826474  27.181671  -34.502535  26.474417  -65.565297  97.311454  -18.463353  -15.492856  -6.302465  1.242342  -0.543191  -4.725564  0.937477  -0.394613  
0.0  93.25843  0.0  -4.902305  19.34131  -87.205676  13.373535  -20.523599  16.806868  4.051973  -1.955747  28.200854  -5.476005  -1.501154  -2.318819  -12.335506  -21.949481  -28.102653  -0.881129  20.550724  25.938554  0.936925  2.316329  2.782361  -0.918845  -1.081467  -0.407482  -2.494806  -2.970987  -1.073186  -2.494806  -2.970987  -1.073186  -16.819799  17.289794  0.472697  137.684618  67.430136  -161.90555  8.36609  -47.574842  73.811836  79.434014  -32.153831  20.107447  6.107631  -9.345104  12.007486  80.238089  69.780508  29.847957  -34.272078  28.970776  -65.086182  99.810136  -17.545081  -16.929318  -5.935224  1.345768  0.012194  -4.45124  1.00932  0.02222  
0.0  93.25843  0.0  -4.750074  18.408202  -87.399957  12.456794  -19.774067  14.763942  2.873795  -1.156275  32.908191  -4.99902  -1.616338  -1.871829  -11.822726  -21.701984  -26.803044  -0.575304  19.914097  25.020681  1.058705  2.467447  2.946954  -0.86976  -1.022245  -0.458958  -2.359204  -2.810188  -1.218226  -2.359204  -2.810188  -1.218225  -16.99012  16.579303  0.433185  135.932842  69.795343  -163.830248  8.847613  -50.020225  73.187422  81.095034  -30.835193  17.483895  6.360824  -9.437682  11.794434  83.937023  70.852701  33.115962  -34.104519  31.460486  -64.691021  101.496942  -16.888479  -17.972471  -5.644192  1.436377  0.59626  -4.234328  1.071885  0.460486  
0.0  93.25843  0.0  -4.605808  17.381502  -87.638823  11.313873  -18.870945  12.466014  1.4374  0.473426  37.562283  -4.020312  -1.977189  -1.434349  -11.33506  -21.412177  -25.53128  -0.404183  19.284029  24.075718  0.890637  2.509655  3.015197  -0.811244  -0.963743  -0.508619  -2.198151  -2.65089  -1.358411  -2.198151  -2.65089  -1.358411  -17.227316  15.816885  0.380016  133.881715  72.085869  -166.205866  8.684912  -51.97022  72.753994  84.313608  -30.398332  16.747721  6.463994  -9.473434  11.48507  88.494522  71.833384  37.043288  -33.987478  33.833992  -64.2903  102.334986  -16.497826  -18.412519  -5.400551  1.513817  1.133164  -4.053001  1.125459  0.863284  
0.0  93.25843  0.0  -4.431667  16.651377  -87.740499  9.782637  -17.835351  9.788291  -0.034568  2.608999  41.928444  -2.531186  -2.080077  -0.816139  -11.165334  -21.03854  -24.508956  -0.463343  18.69307  23.139554  1.116676  2.559236  3.165749  -0.772064  -0.893491  -0.575853  -2.089829  -2.460214  -1.545977  -2.089829  -2.460214  -1.545977  -17.640666  14.9237  0.264275  131.561539  74.24362  -168.911056  7.997936  -53.679348  72.471399  87.845879  -30.606631  16.054771  6.691289  -9.618579  11.274555  93.647756  73.011699  41.812892  -33.885897  35.693476  -63.760691  101.146453  -16.67391  -19.358201  -5.102457  1.534009  1.692314  -3.830897  1.136483  1.282076  
